<svg xmlns="http://www.w3.org/2000/svg" version="1.0" viewBox="0 0 512 512"><path d="M242 28c-17 4-32 20-36 38-4 22 6 45 26 56l16 5 3 3c0 3 0 3-3 3l-5 1-105 121 1 3c4 6 3 7 58-56 28-33 52-59 53-59l1 81v82l-39 87c-41 95-40 92-33 93 2 0 3 0 4-2a5152 5152 0 0 0 73-163 4188 4188 0 0 1 73 163c1 2 2 2 4 2 7-1 8 2-33-93l-39-87v-82l1-81c1 0 25 26 53 59 54 63 54 62 58 57v-5L269 134l-5-1c-2 0-3 0-3-3l3-3 16-5 12-9c20-20 20-52 0-72-7-7-14-11-22-14-8-1-21-1-28 1zm26 10c12 3 22 13 26 24 9 24-6 50-32 55-25 4-49-18-47-44 3-26 28-43 53-35z"/></svg>